<?xml version="1.0" encoding="UTF-8"?>
<svg width="13px" height="18px" viewBox="0 0 13 18" version="1.1" xmlns="http://www.w3.org/2000/svg" xmlns:xlink="http://www.w3.org/1999/xlink">
    <!-- Generator: Sketch 55 (78076) - https://sketchapp.com -->
    <title>Group</title>
    <desc>Created with Sketch.</desc>
    <g id="Page-1" stroke="none" stroke-width="1" fill="none" fill-rule="evenodd">
        <g id="sublinhado" transform="translate(0.000000, 1.000000)" stroke="#000000">
            <g id="Group" transform="translate(0.750000, 0.000000)">
                <path d="M11.158,4.395 L8.229,4.395 C8.229,3.74366667 8.02366667,3.23733333 7.613,2.876 C7.39050806,2.68360312 7.12877279,2.54198625 6.846,2.461 C6.644,2.40033333 6.42166667,2.36133333 6.179,2.344 C6.08114785,2.33721492 5.98308703,2.33387952 5.885,2.334 C5.67585246,2.33280069 5.46691659,2.34750977 5.26,2.378 C5.03466667,2.41266667 4.83066667,2.46766667 4.648,2.543 C4.49356232,2.60535631 4.34798392,2.68772746 4.215,2.788 C4.04449478,2.91429552 3.90214272,3.074697 3.797,3.259 C3.68233333,3.465 3.623,3.698 3.619,3.958 C3.61893843,3.96666656 3.61893843,3.97533344 3.619,3.984 C3.61835964,4.32587661 3.75744103,4.65316946 4.004,4.89 C4.09940563,4.98599608 4.2042722,5.07210057 4.317,5.147 C4.76166667,5.445 5.407,5.72566667 6.253,5.989 C6.29295239,6.00115814 6.3329527,6.01315823 6.373,6.025 C6.84652262,6.16577756 7.3127633,6.32997972 7.77,6.517 C8.70466667,6.903 9.435,7.34366667 9.961,7.839 C9.97948596,7.85617119 9.99782001,7.87350519 10.016,7.891 C10.750968,8.59455498 11.1639818,9.5695857 11.158,10.587 C11.1582072,10.6126662 11.1582072,10.6383338 11.158,10.664 C11.1637532,11.1218225 11.0889472,11.5770896 10.937,12.009 C10.7072551,12.6307792 10.2983676,13.1705107 9.762,13.56 C9.27010411,13.9225985 8.71446796,14.1895617 8.124,14.347 C7.67333333,14.473 7.18133333,14.5536667 6.648,14.589 C6.43294637,14.6027936 6.21749504,14.6094639 6.002,14.609 C5.38078519,14.6125129 4.76138183,14.541676 4.157,14.398 C3.76503569,14.3031124 3.3824725,14.1729137 3.014,14.009 C2.61624309,13.8347847 2.24060729,13.6139014 1.895,13.351 C1.53173604,13.0740107 1.21536594,12.7404209 0.958,12.363 C0.543994424,11.7474393 0.303561399,11.0316674 0.262,10.291 C0.25403279,10.174837 0.250030463,10.0584359 0.25,9.942 L3.189,9.942 C3.189,11.3993333 3.99833333,12.1796667 5.617,12.283 C5.74517309,12.2910928 5.87357172,12.2950948 6.002,12.295 C6.474,12.295 6.87566667,12.23 7.207,12.1 C7.35819444,12.0417424 7.50134771,11.9644531 7.633,11.87 C8.02366667,11.5866667 8.219,11.1913333 8.219,10.684 C8.22074987,10.4992468 8.19513891,10.3152522 8.143,10.138 C8.05625938,9.84626548 7.877323,9.59049171 7.633,9.409 C7.24233333,9.113 6.539,8.80066667 5.523,8.472 C4.85966667,8.25666667 4.28633333,8.04366667 3.803,7.833 C3.56787217,7.73151954 3.337011,7.62042594 3.111,7.5 C2.6905233,7.27771149 2.29779822,7.00649622 1.941,6.692 C1.14088162,6.01720572 0.68213013,5.02165637 0.689,3.975 C0.679295917,3.23765313 0.907202496,2.51676709 1.339,1.919 C1.63502598,1.51276793 2.00727846,1.16802682 2.435,0.904 C2.67986106,0.750820162 2.93708853,0.618359726 3.204,0.508 C4.01466667,0.169333333 4.92466667,0 5.934,0 C6.94933333,0 7.854,0.184 8.648,0.552 C9.08675602,0.751132561 9.49165274,1.01768957 9.848,1.342 C10.0957733,1.56986737 10.3144311,1.82748717 10.499,2.109 C10.9197568,2.75377882 11.1480075,3.50513302 11.157,4.275 C11.1578239,4.31499441 11.1581572,4.35499742 11.158,4.395 Z" id="Path" stroke-width="0.25" fill="#000000" stroke-linecap="round"></path>
                <path d="M0,16 L11.5,16" id="Line" stroke-linecap="square"></path>
            </g>
        </g>
    </g>
</svg>